<?xml version="1.0" standalone="no"?>
<!DOCTYPE svg PUBLIC "-//W3C//DTD SVG 20010904//EN"
 "http://www.w3.org/TR/2001/REC-SVG-20010904/DTD/svg10.dtd">
<svg version="1.0" xmlns="http://www.w3.org/2000/svg"
 width="1080.000000pt" height="1080.000000pt" viewBox="0 0 1080.000000 1080.000000"
 preserveAspectRatio="xMidYMid meet">

<g transform="translate(0.000000,1080.000000) scale(0.100000,-0.100000)"
fill="#000000" stroke="none">
<path d="M0 5400 l0 -5400 5400 0 5400 0 0 5400 0 5400 -5400 0 -5400 0 0
-5400z m5550 2358 c42 -29 70 -82 70 -133 0 -65 -13 -73 -46 -29 -41 57 -48
63 -30 27 9 -18 21 -44 26 -58 9 -24 8 -25 -18 -19 -89 21 -144 124 -112 208
8 21 16 26 43 26 19 0 49 -10 67 -22z m1068 -44 c74 -49 111 -120 112 -214 0
-65 -30 -149 -55 -157 -6 -2 -26 40 -44 92 -19 53 -35 94 -37 92 -2 -2 5 -48
15 -103 11 -54 17 -101 15 -103 -7 -8 -94 51 -112 77 -44 61 -56 97 -56 162 0
65 12 101 55 162 17 23 23 25 50 18 17 -5 43 -17 57 -26z m-387 -26 c15 -56
-2 -112 -47 -154 -30 -29 -80 -51 -91 -40 -2 2 7 27 21 55 15 28 24 51 22 51
-3 0 -19 -20 -36 -45 -17 -25 -35 -43 -41 -40 -17 11 -10 108 11 143 25 41 76
72 117 72 29 0 33 -4 44 -42z m-902 -29 c16 -46 14 -90 -8 -129 -21 -41 -74
-80 -108 -80 l-23 0 25 53 c26 52 18 47 -31 -19 l-22 -29 -7 38 c-12 61 2 108
46 149 35 34 55 43 101 47 10 0 20 -11 27 -30z m-389 -21 c55 -38 75 -73 75
-133 0 -64 -11 -79 -34 -46 -39 59 -52 65 -26 14 29 -61 21 -67 -45 -33 -65
33 -97 123 -70 194 12 33 54 35 100 4z m-253 -129 c24 -11 59 -39 78 -62 50
-58 84 -184 55 -202 -6 -4 -39 17 -73 47 -101 87 -105 87 -29 -2 l72 -85 -60
-3 c-133 -7 -240 102 -240 242 0 84 2 86 83 86 51 0 83 -6 114 -21z m1224 -44
c62 -43 97 -99 111 -173 17 -92 4 -98 -74 -32 -104 88 -105 88 -31 0 l71 -85
-46 -3 c-138 -10 -252 99 -252 239 0 91 0 91 96 87 73 -3 87 -7 125 -33z
m-361 -14 c16 -31 12 -103 -9 -141 -19 -37 -57 -64 -104 -76 l-29 -7 26 51
c35 69 33 77 -5 20 -17 -27 -35 -48 -39 -48 -14 0 -21 69 -11 108 22 82 142
147 171 93z m886 -24 c4 -4 7 -37 7 -74 0 -103 -52 -186 -142 -229 -40 -20
-151 -32 -151 -17 0 6 29 44 65 86 36 43 63 77 61 77 -3 0 -40 -30 -83 -66
l-78 -67 -3 49 c-5 67 12 118 56 166 55 61 122 90 199 86 34 -2 65 -7 69 -11z
m-2154 -97 c64 -18 119 -103 106 -166 -3 -15 -10 -12 -47 21 -25 23 -40 31
-34 20 6 -11 21 -29 32 -39 30 -27 26 -36 -16 -36 -79 0 -143 68 -143 152 0
59 23 70 102 48z m908 -55 c84 -43 129 -119 130 -218 l0 -59 -62 53 c-115 97
-115 97 -97 74 8 -11 41 -50 73 -87 l58 -68 -61 0 c-92 0 -164 41 -215 121
-22 35 -37 126 -28 169 7 30 13 36 42 41 51 9 109 -1 160 -26z m1538 -11 c19
-5 22 -13 22 -51 0 -50 -16 -87 -53 -121 -27 -26 -105 -48 -119 -34 -4 4 9 28
29 52 37 44 37 44 7 23 -17 -12 -37 -29 -44 -38 -19 -23 -30 -18 -30 16 0 36
24 90 50 114 18 16 83 44 105 44 6 1 20 -2 33 -5z m-986 -117 c15 -23 8 -132
-11 -173 -41 -90 -134 -148 -229 -142 l-52 3 66 78 c36 42 63 77 60 77 -3 0
-37 -27 -76 -61 -39 -33 -75 -57 -81 -53 -16 10 -3 107 20 153 35 68 97 113
186 135 30 7 109 -4 117 -17z m-822 -68 c17 -31 2 -96 -31 -134 -35 -39 -75
-58 -119 -53 l-31 3 38 45 c37 44 25 41 -28 -8 -21 -18 -28 -20 -32 -9 -8 22
9 87 31 116 41 57 150 82 172 40z m1060 0 c47 -27 82 -87 78 -134 l-3 -35 -50
42 c-47 40 -43 29 14 -34 l25 -28 -46 0 c-55 0 -103 30 -129 80 -18 34 -26
110 -12 123 14 15 87 6 123 -14z m-1445 -62 c21 -12 53 -41 69 -65 42 -59 49
-159 16 -227 -12 -25 -25 -45 -30 -45 -4 0 -21 37 -38 83 -34 91 -39 87 -18
-20 16 -83 11 -88 -45 -50 -97 65 -125 199 -64 304 30 50 50 54 110 20z m1798
5 c53 -59 63 -176 20 -253 -26 -49 -114 -121 -121 -100 -2 6 4 47 12 92 9 46
14 84 13 86 -2 2 -16 -33 -31 -77 -16 -44 -32 -83 -37 -86 -14 -8 -48 56 -55
105 -13 86 28 176 106 229 40 27 71 28 93 4z m-2058 -82 c41 -25 65 -75 65
-132 0 -71 -13 -76 -50 -19 -17 28 -34 51 -36 51 -2 0 8 -24 21 -52 22 -48 23
-53 8 -57 -27 -5 -82 29 -105 67 -25 40 -29 113 -9 151 11 19 18 22 43 17 17
-3 45 -15 63 -26z m2333 5 c29 -64 3 -152 -57 -192 -36 -24 -71 -30 -71 -13 0
6 9 30 21 53 23 46 18 42 -26 -17 -28 -39 -28 -39 -38 -15 -13 36 -2 103 23
139 22 31 88 69 121 70 9 0 21 -11 27 -25z m-1569 -84 c7 -5 16 -31 18 -58 14
-141 -87 -259 -232 -271 -36 -2 -65 -1 -65 3 0 4 30 44 67 89 70 84 68 84 -33
-2 -34 -29 -65 -52 -69 -52 -4 0 -5 29 -3 64 12 139 114 235 253 235 28 1 56
-3 64 -8z m874 -16 c45 -21 91 -65 113 -106 20 -39 33 -115 25 -145 -6 -24 -8
-23 -86 43 -85 73 -88 70 -16 -17 86 -102 85 -94 11 -88 -104 8 -189 65 -224
150 -23 53 -21 164 2 178 25 15 131 7 175 -15z m-2287 -1 c48 -23 76 -67 82
-127 l5 -51 -54 44 -54 45 43 -52 44 -53 -39 0 c-82 0 -152 71 -153 156 0 22
3 44 7 47 12 13 85 7 119 -9z m3647 -13 c18 -91 -65 -188 -154 -179 l-33 3 33
38 c40 45 37 59 -4 17 -42 -44 -59 -40 -51 11 13 82 77 139 157 139 43 0 47
-2 52 -29z m-3275 -1 c36 -22 71 -88 72 -132 0 -16 -3 -28 -6 -28 -3 0 -27 17
-52 38 l-47 37 38 -46 c20 -25 37 -50 37 -54 0 -13 -82 5 -115 25 -43 27 -65
70 -65 129 l0 51 53 0 c34 0 63 -7 85 -20z m2917 -37 c-1 -64 -23 -99 -85
-130 -74 -38 -120 -23 -69 23 11 10 26 28 32 39 6 11 -9 3 -34 -20 l-44 -40
-3 38 c-4 47 22 93 68 125 27 18 45 22 85 20 l50 -3 0 -52z m-1549 -47 c93
-43 149 -137 142 -236 l-3 -44 -70 60 c-102 88 -108 87 -32 -1 37 -43 67 -82
67 -87 0 -11 -67 -10 -110 2 -113 31 -184 124 -184 243 -1 50 3 70 14 77 29
18 122 11 176 -14z m-1000 -111 c102 -30 174 -126 174 -232 0 -29 -3 -53 -7
-53 -3 0 -34 23 -67 52 -101 86 -103 86 -33 2 37 -45 67 -85 67 -88 0 -3 -24
-6 -54 -6 -70 0 -149 40 -193 98 -56 74 -68 213 -19 232 32 13 77 12 132 -5z
m2196 -7 c12 -19 10 -105 -4 -152 -17 -57 -102 -141 -157 -156 -23 -6 -62 -10
-87 -8 l-45 3 66 79 c36 43 65 80 65 82 0 3 -34 -25 -77 -61 -42 -36 -80 -65
-86 -65 -15 0 -2 112 18 151 34 68 100 122 170 140 41 11 127 2 137 -13z
m-3008 -91 c46 -26 76 -77 76 -130 l0 -39 -52 44 -53 43 43 -52 44 -53 -39 0
c-82 0 -152 71 -153 156 0 22 3 44 7 47 14 15 90 6 127 -16z m417 -2 c43 -22
96 -72 115 -107 22 -42 36 -121 26 -147 -8 -23 -10 -21 -79 38 -39 33 -74 61
-78 61 -3 0 23 -35 60 -77 l66 -78 -42 -3 c-65 -5 -124 16 -176 61 -61 54 -83
104 -83 190 0 61 2 69 23 77 31 14 128 5 168 -15z m3015 12 c13 -13 16 -103 5
-144 -27 -101 -134 -183 -237 -183 -30 0 -54 3 -54 6 0 4 23 34 52 68 29 33
59 70 67 81 15 19 15 19 -4 4 -11 -8 -47 -39 -81 -67 -33 -29 -64 -52 -69 -52
-4 0 -5 29 -3 65 12 142 120 239 260 232 32 -2 61 -6 64 -10z m362 -42 c2 -40
-2 -58 -20 -85 -31 -46 -78 -72 -124 -68 l-38 3 32 36 c45 51 40 58 -9 14 -22
-20 -43 -34 -46 -31 -3 3 -2 26 1 50 13 82 81 138 161 133 l40 -2 3 -50z
m-1200 -121 c8 -100 -23 -154 -169 -294 -172 -165 -191 -201 -119 -220 49 -13
155 2 212 31 21 11 102 79 178 151 180 170 241 211 286 194 13 -5 15 -16 12
-51 -11 -97 -109 -231 -241 -331 -40 -30 -53 -44 -37 -40 63 18 197 94 330
187 160 112 209 138 258 139 125 1 -39 -204 -253 -315 l-69 -36 64 8 c36 4
135 8 220 8 142 0 159 -2 198 -23 23 -13 48 -34 55 -49 10 -22 8 -28 -12 -44
-21 -17 -42 -19 -211 -19 -161 0 -197 -3 -254 -20 -70 -22 -86 -40 -36 -40 60
0 162 -42 208 -86 40 -38 43 -45 40 -85 -4 -57 -31 -63 -86 -19 -121 97 -484
142 -657 81 -232 -83 -326 -346 -270 -763 27 -201 35 -222 101 -281 60 -54
154 -186 154 -217 0 -10 -67 -82 -152 -164 l-152 -145 -48 45 c-158 148 -438
148 -596 0 l-48 -45 -152 145 c-84 80 -152 154 -152 163 0 27 75 139 131 197
38 38 53 64 64 105 51 189 64 502 27 640 -66 248 -205 349 -477 349 -172 -1
-341 -42 -436 -106 -55 -37 -69 -40 -87 -22 -34 34 3 112 72 153 49 29 134 55
179 55 47 0 29 18 -39 40 -57 17 -93 20 -256 20 -111 0 -197 4 -209 10 -52 28
2 99 92 120 51 12 299 9 389 -6 30 -4 25 0 -36 33 -93 51 -160 101 -218 163
-83 89 -93 150 -24 150 41 0 111 -38 246 -134 175 -124 244 -163 327 -187 l30
-8 -30 22 c-134 99 -228 212 -260 314 -21 65 -14 93 24 93 42 0 110 -51 262
-196 77 -73 159 -142 183 -153 83 -41 218 -49 246 -16 18 22 -2 49 -145 195
-148 151 -178 197 -179 280 -1 54 27 150 44 150 4 0 25 -24 47 -53 59 -77 152
-169 219 -214 161 -110 290 -329 355 -602 36 -148 49 -290 54 -586 3 -159 8
-318 11 -353 6 -61 6 -63 32 -60 l27 3 6 145 c4 80 7 220 8 311 4 588 138 944
436 1162 64 47 153 138 206 212 l33 46 19 -38 c11 -20 22 -65 25 -99z m-998
101 c33 -86 -64 -198 -159 -183 -21 3 -20 5 16 48 37 44 25 41 -29 -9 -23 -20
-28 -22 -33 -9 -8 20 10 86 31 117 21 29 88 60 132 61 26 0 34 -5 42 -25z
m583 11 c61 -25 102 -91 95 -151 l-3 -26 -45 38 c-44 37 -41 25 9 -29 l25 -28
-46 0 c-55 0 -106 31 -130 80 -21 41 -24 116 -5 123 23 10 68 7 100 -7z m-159
-236 c25 -131 -81 -266 -224 -285 -77 -10 -81 5 -19 77 89 102 88 106 -1 30
l-85 -72 -3 48 c-7 97 42 182 130 226 45 23 64 26 123 24 l70 -3 9 -45z
m-1913 -44 c85 -30 151 -114 162 -206 11 -87 1 -88 -93 -8 -89 75 -89 72 -3
-28 69 -80 69 -88 -5 -81 -98 8 -183 68 -218 153 -17 41 -18 156 -2 172 16 16
113 15 159 -2z m3608 5 c22 -14 26 -102 6 -162 -24 -70 -88 -133 -158 -154
-53 -16 -127 -20 -127 -7 0 4 33 45 72 92 76 89 74 89 -34 -3 -36 -31 -69 -57
-72 -57 -3 0 -6 24 -6 53 1 136 113 247 250 247 30 0 61 -4 69 -9z m-3961 -91
c42 -26 72 -76 72 -122 0 -46 -8 -47 -45 -8 -44 46 -52 35 -9 -12 32 -36 36
-43 20 -46 -59 -12 -137 34 -162 95 -15 34 -19 95 -7 106 14 15 99 6 131 -13z
m4292 -32 c0 -68 -27 -113 -83 -138 -40 -19 -97 -27 -97 -14 0 3 17 27 38 52
l37 47 -46 -38 c-25 -20 -49 -37 -53 -37 -13 0 -5 56 15 96 27 58 70 84 137
84 l52 0 0 -52z m-4036 -292 c24 -14 54 -38 66 -53 l22 -28 -114 -9 c-96 -8
-107 -11 -73 -17 22 -4 63 -9 90 -9 28 -1 61 -5 74 -9 24 -6 23 -7 -22 -47
-25 -22 -63 -46 -85 -52 -57 -17 -141 -14 -187 7 -43 19 -115 92 -115 116 0
35 81 104 150 126 48 16 146 3 194 -25z m3854 20 c54 -19 99 -53 124 -94 l20
-33 -29 -37 c-70 -89 -207 -118 -311 -66 -29 14 -61 38 -73 52 -19 25 -19 27
-2 33 10 4 41 8 68 9 28 1 68 4 90 9 38 7 37 7 -30 14 -38 4 -87 7 -107 7 -21
0 -38 4 -38 8 0 4 15 22 33 39 68 67 168 89 255 59z m-3575 -242 c4 -4 -24
-43 -61 -88 -70 -85 -66 -85 34 1 34 29 65 53 69 53 13 0 -1 -124 -18 -157
-48 -92 -131 -143 -234 -143 -77 0 -88 14 -80 106 8 107 72 189 169 219 46 15
111 19 121 9z m3243 -22 c52 -26 108 -89 125 -138 18 -52 16 -153 -2 -165 -21
-15 -149 -5 -186 14 -84 44 -136 134 -131 226 l3 52 78 -66 c42 -37 77 -64 77
-60 0 3 -27 37 -60 76 -33 38 -60 75 -60 81 0 17 111 3 156 -20z m-3686 -100
c0 -5 -13 -21 -30 -37 -42 -40 -38 -54 5 -16 20 17 38 31 42 31 3 0 3 -23 1
-50 -8 -80 -67 -130 -152 -130 -43 0 -45 1 -51 33 -11 60 32 137 90 163 33 15
95 19 95 6z m4077 -13 c54 -26 85 -81 81 -142 l-3 -42 -49 -3 c-59 -4 -114 28
-139 81 -16 34 -23 97 -11 97 3 0 27 -17 52 -37 l47 -38 -38 46 c-20 25 -37
49 -37 53 0 13 56 5 97 -15z m-3764 -1009 c434 -63 813 -219 1107 -457 162
-132 337 -331 436 -498 46 -79 107 -205 101 -211 -1 -1 -29 33 -61 77 -89 120
-253 273 -396 368 -361 242 -820 376 -1400 412 -169 10 -468 6 -514 -8 -10 -3
-17 -1 -15 5 2 6 69 86 149 177 l145 167 153 -6 c84 -3 217 -15 295 -26z
m3967 -136 c80 -91 147 -170 149 -176 2 -6 -5 -8 -15 -5 -46 14 -345 18 -514
8 -580 -36 -1039 -170 -1400 -412 -143 -95 -307 -248 -396 -368 -32 -44 -60
-78 -61 -77 -6 6 55 132 101 211 99 167 274 366 436 498 372 301 904 479 1455
485 l100 2 145 -166z m-3980 -279 c502 -58 933 -230 1325 -528 81 -63 309
-278 325 -308 5 -9 -39 13 -98 48 -429 259 -901 419 -1402 474 -146 16 -522
17 -665 1 -217 -25 -464 -74 -597 -121 -32 -11 -58 -18 -58 -16 0 9 213 387
225 399 13 12 171 39 325 55 132 14 487 12 620 -4z m4175 -14 c77 -12 147 -24
156 -27 12 -3 239 -391 239 -409 0 -2 -26 5 -57 16 -134 47 -381 96 -598 121
-143 16 -519 15 -665 -1 -501 -55 -973 -215 -1402 -474 -59 -35 -103 -57 -98
-48 16 30 244 245 325 308 387 294 812 465 1315 529 164 20 606 12 785 -15z
m-2305 -24 c31 -14 71 -42 90 -62 l34 -35 -52 -52 -51 -52 -28 26 c-41 39 -94
58 -163 58 -69 0 -122 -19 -163 -58 l-28 -26 -51 52 -52 52 34 35 c35 36 99
72 154 86 17 5 74 7 126 5 78 -2 105 -8 150 -29z m-76 -180 c58 -33 66 -51 36
-82 -22 -24 -29 -25 -130 -25 -101 0 -108 1 -130 25 -30 31 -22 49 36 82 27
16 55 23 94 23 39 0 67 -7 94 -23z m-1354 -222 c450 -61 844 -210 1165 -440
50 -36 92 -65 95 -65 3 0 46 29 95 65 324 232 710 377 1175 442 176 24 609 24
810 -1 272 -33 567 -96 803 -172 82 -27 110 -41 117 -57 9 -20 90 -325 90
-337 0 -3 -53 12 -117 33 -588 194 -1245 268 -1913 216 -336 -26 -759 -102
-997 -180 l-63 -21 -62 21 c-425 138 -1125 220 -1648 192 -457 -25 -877 -101
-1262 -228 -65 -21 -118 -36 -118 -33 0 12 81 317 90 337 7 16 35 30 117 57
295 95 667 166 993 190 115 8 519 -4 630 -19z"/>
</g>
</svg>
